{"title":"The Linguini Incident (1991) US Version","uid":13244017,"size":1106079458,"categoryP":"video","categoryS":"movies","magnet":"?xt=urn:btih:32548450f3d939bc0512e920accc4ac4b5ad9d1f&amp;dn=The+Linguini+Incident+%281991%29+US+Version&amp;tr=udp%3A%2F%2Ftracker.leechers-paradise.org%3A6969&amp;tr=udp%3A%2F%2Fzer0day.ch%3A1337&amp;tr=udp%3A%2F%2Fopen.demonii.com%3A1337&amp;tr=udp%3A%2F%2Ftracker.coppersurfer.tk%3A6969&amp;tr=udp%3A%2F%2Fexodus.desync.com%3A6969","seeders":3,"leechers":1,"uploader":"contraire","files":1,"time":1453076154,"description":"The Linguini Incident (1991) US version\r\n\r\nTwo disgruntled restaurant employees (David Bowie, Rosanna Arquette) decide to rob their employers (Buck Henry, Andre Gregory).\r\n\r\nDirector: Richard Shepard\r\nWriters: Tamar Brott, Richard Shepard\r\nStars: Rosanna Arquette, David Bowie, Eszter Balint\r\n\r\nFormat                      : Matroska\r\nFile size                   : 1.03 GiB\r\nDuration                    : 1h 38mn\r\nOverall bit rate            : 1 500 Kbps\r\n\r\nVideo\r\nFormat                      : AVC\r\nCodec ID                    : V_MPEG4/ISO/AVC\r\nBit rate                    : 1 240 Kbps\r\nWidth                       : 720 pixels\r\nHeight                      : 480 pixels\r\nDisplay aspect ratio        : 4:3\r\nFrame rate mode             : Constant\r\nFrame rate                  : 29.970 (30000/1001) fps\r\nStandard                    : NTSC\r\nStream size                 : 873 MiB (83%)\r\n\r\nAudio #1\r\nFormat                      : AAC\r\nCodec ID                    : A_AAC\r\nDuration                    : 1h 38mn\r\nBit rate                    : 128 Kbps\r\nChannel(s)                  : 2 channels\r\nSampling rate               : 48.0 KHz\r\nFrame rate                  : 46.875 fps (1024 spf)\r\nCompression mode            : Lossy\r\nStream size                 : 90.0 MiB (9%)\r\nTitle                       : Original\r\nLanguage                    : English\r\n\r\nAudio #2\r\nFormat                      : AAC\r\nCodec ID                    : A_AAC\r\nBit rate                    : 128 Kbps\r\nChannel(s)                  : 2 channels\r\nSampling rate               : 48.0 KHz\r\nFrame rate                  : 46.875 fps (1024 spf)\r\nCompression mode            : Lossy\r\nStream size                 : 90.0 MiB (9%)\r\nTitle                       : AVO (Gavrilov)\r\nLanguage                    : Russian\r\n\r\nThis was ripped from a fan-remastered Canadian DVD of the US version of this movie (the audio track with Russian voiceover was added)","torrent":{"xt":"urn:btih:32548450f3d939bc0512e920accc4ac4b5ad9d1f","amp;dn":"The+Linguini+Incident+%281991%29+US+Version","amp;tr":["udp%3A%2F%2Ftracker.leechers-paradise.org%3A6969","udp%3A%2F%2Fzer0day.ch%3A1337","udp%3A%2F%2Fopen.demonii.com%3A1337","udp%3A%2F%2Ftracker.coppersurfer.tk%3A6969","udp%3A%2F%2Fexodus.desync.com%3A6969"],"infoHash":"32548450f3d939bc0512e920accc4ac4b5ad9d1f","infoHashBuffer":{"type":"Buffer","data":[50,84,132,80,243,217,57,188,5,18,233,32,172,204,74,196,181,173,157,31]},"announce":[],"urlList":[]}}